#!OML:ASF E:\motion texture\Top Level 1\Subject 1\Session 1\male.ASF
:FULLY-SPECIFIED
:DEGREES
537
root -28.3157 17.771 6.40978 7.70802 -79.5785 -0.59116
lowerback -2.81211 1.53613 -2.35681
upperback -3.00217 2.0453 -0.0650057
thorax -1.58618 1.05047 1.27971
lowerneck -14.3597 -1.36711 -5.1255
upperneck 6.10302 -1.99107 10.6431
head 4.33597 -0.50157 3.99154
rclavicle -5.59606e-014 -2.18663e-015
rhumerus 55.3481 18.2573 -57.4554
rradius 66.5087
rwrist 27.8446
rhand -39.3572 -30.864
rfingers 7.12502
rthumb -12.3481 -60.4794
lclavicle -5.59606e-014 -2.18663e-015
lhumerus 45.849 -14.9178 81.9933
lradius 66.0373
lwrist 11.5179
lhand -21.4061 48.4491
lfingers 7.12502
lthumb 4.98226 78.3705
rfemur -32.7862 -7.42813 18.4967
rtibia 18.7807
rfoot -2.36533 -19.5238
rtoes 6.67339
lfemur -1.43608 -2.92907 -18.9077
ltibia 26.216
lfoot -12.1504 -6.14672
ltoes -13.8306
538
root -28.492 17.7629 6.40248 8.20377 -79.7264 -1.16829
lowerback -2.80894 1.49185 -2.20872
upperback -3.01154 1.98472 0.0283455
thorax -1.59308 1.01855 1.29174
lowerneck -14.4352 -1.32921 -5.06352
upperneck 6.13589 -1.95284 10.639
head 4.35466 -0.479093 3.98363
rclavicle -2.26118e-014 -2.98177e-015
rhumerus 55.7579 18.5083 -57.4443
rradius 66.1946
rwrist 28.1846
rhand -39.6249 -31.4217
rfingers 7.12502
rthumb -12.6061 -61.0213
lclavicle -2.26118e-014 -2.98177e-015
lhumerus 45.9653 -14.7717 82.5238
lradius 66.0858
lwrist 12.5575
lhand -21.2312 48.6448
lfingers 7.12502
lthumb 5.15108 78.5622
rfemur -32.6569 -6.9531 18.654
rtibia 18.737
rfoot -2.09061 -19.3578
rtoes 7.28798
lfemur -1.50335 -2.99797 -18.6671
ltibia 27.2478
lfoot -11.5622 -6.35765
ltoes -14.7762
539
root -28.6686 17.7555 6.39499 8.81002 -79.8833 -1.86436
lowerback -2.80053 1.45239 -2.04609
upperback -3.01557 1.93045 0.128452
thorax -1.5975 0.989534 1.30256
lowerneck -14.5183 -1.29203 -4.99772
upperneck 6.17754 -1.91617 10.6283
head 4.37729 -0.457248 3.97297
rclavicle -2.24456e-014 -2.98177e-015
rhumerus 56.1155 18.7737 -57.4431
rradius 65.9232
rwrist 28.5406
rhand -39.9082 -31.9538
rfingers 7.12502
rthumb -12.8793 -61.5364
lclavicle -2.24456e-014 -2.98177e-015
lhumerus 46.0309 -14.6488 83.0445
lradius 66.1965
lwrist 13.5941
lhand -20.9997 48.8005
lfingers 7.12502
lthumb 5.37462 78.7123
rfemur -32.5183 -6.50884 18.8556
rtibia 18.7849
rfoot -1.82317 -19.1421
rtoes 7.92533
lfemur -1.62128 -3.07014 -18.4101
ltibia 28.3407
lfoot -10.9165 -6.57039
ltoes -15.6934
540
root -28.8453 17.749 6.38749 9.52115 -80.0491 -2.67455
lowerback -2.78589 1.41718 -1.87035
upperback -3.01206 1.8818 0.23511
thorax -1.59777 0.963079 1.31276
lowerneck -14.6162 -1.25536 -4.9385
upperneck 6.23211 -1.88003 10.6211
head 4.40648 -0.43493 3.96471
rclavicle 1.53437e-015 2.28602e-015
rhumerus 56.4287 19.0542 -57.4405
rradius 65.7065
rwrist 28.8809
rhand -40.1767 -32.4896
rfingers 7.12502
rthumb -13.1381 -62.0557
lclavicle 1.53437e-015 2.28602e-015
lhumerus 46.0528 -14.5487 83.5459
lradius 66.3698
lwrist 14.6322
lhand -20.7099 48.9155
lfingers 7.12502
lthumb 5.65442 78.8201
rfemur -32.3674 -6.09816 19.0983
rtibia 18.9174
rfoot -1.56637 -18.8758
rtoes 8.57639
lfemur -1.7894 -3.1445 -18.1406
ltibia 29.4917
lfoot -10.2187 -6.78399
ltoes -16.5595
541
root -29.0221 17.7434 6.3798 10.3551 -80.2229 -3.61403
lowerback -2.76596 1.38669 -1.68245
upperback -3.00448 1.8393 0.347962
thorax -1.59697 0.939494 1.32248
lowerneck -14.718 -1.21913 -4.87284
upperneck 6.29356 -1.84526 10.6048
head 4.43835 -0.41337 3.9525
rclavicle 2.18725e-014 4.47266e-015
rhumerus 56.6929 19.3475 -57.4384
rradius 65.5412
rwrist 29.2144
rhand -40.4359 -33.0073
rfingers 7.12502
rthumb -13.388 -62.5572
lclavicle 2.18725e-014 4.47266e-015
lhumerus 46.0282 -14.4748 84.0204
lradius 66.6064
lwrist 15.6849
lhand -20.3678 48.9867
lfingers 7.12502
lthumb 5.98478 78.8822
rfemur -32.2055 -5.71783 19.3823
rtibia 19.1281
rfoot -1.3281 -18.5658
rtoes 9.24293
lfemur -2.01059 -3.21694 -17.8548
ltibia 30.695
lfoot -9.47237 -6.9982
ltoes -17.3622
542
root -29.199 17.7387 6.37205 11.3082 -80.403 -4.67928
lowerback -2.74069 1.36165 -1.48303
upperback -2.99105 1.80398 0.465971
thorax -1.59332 0.919278 1.33104
lowerneck -14.829 -1.18446 -4.80468
upperneck 6.3639 -1.81299 10.5822
head 4.47459 -0.392862 3.93789
rclavicle 4.24522e-014 -7.70291e-016
rhumerus 56.9113 19.6488 -57.4278
rradius 65.4342
rwrist 29.5255
rhand -40.6802 -33.5251
rfingers 7.12502
rthumb -13.6234 -63.0593
lclavicle 4.24522e-014 -7.70291e-016
lhumerus 45.9658 -14.4304 84.461
lradius 66.9062
lwrist 16.7608
lhand -19.968 49.0144
lfingers 7.12502
lthumb 6.37071 78.8986
rfemur -32.0295 -5.37113 19.7037
rtibia 19.4078
rfoot -1.1123 -18.2135
rtoes 9.91906
lfemur -2.28371 -3.28605 -17.5563
ltibia 31.9459
lfoot -8.68591 -7.21082
ltoes -18.0987
543
root -29.3757 17.7351 6.36428 12.3885 -80.5872 -5.87721
lowerback -2.70781 1.34154 -1.27229
upperback -2.97425 1.77509 0.588778
thorax -1.59062 0.902085 1.33811
lowerneck -14.9433 -1.15044 -4.73349
upperneck 6.44055 -1.78195 10.5528
head 4.51331 -0.37303 3.92061
rclavicle -6.38085e-015 -3.82039e-016
rhumerus 57.0828 19.9558 -57.409
rradius 65.3838
rwrist 29.8152
rhand -40.9118 -34.0246
rfingers 7.12502
rthumb -13.8467 -63.5436
lclavicle -6.38085e-015 -3.82039e-016
lhumerus 45.8654 -14.4155 84.8617
lradius 67.2648
lwrist 17.8539
lhand -19.5121 48.9977
lfingers 7.12502
lthumb 6.81081 78.8681
rfemur -31.8377 -5.05882 20.0607
rtibia 19.7472
rfoot -0.920391 -17.8237
rtoes 10.5859
lfemur -2.60952 -3.35073 -17.2454
ltibia 33.2385
lfoot -7.86859 -7.42005
ltoes -18.7542
544
root -29.552 17.7325 6.3565 13.6036 -80.7745 -7.2143
lowerback -2.67055 1.32618 -1.05145
upperback -2.95183 1.75247 0.716755
thorax -1.58475 0.887837 1.34485
lowerneck -15.0648 -1.11669 -4.66215
upperneck 6.52383 -1.7512 10.5185
head 4.55522 -0.353268 3.9019
rclavicle -2.88187e-014 -1.59028e-015
rhumerus 57.215 20.2657 -57.3746
rradius 65.3969
rwrist 30.0637
rhand -41.1168 -34.5103
rfingers 7.12502
rthumb -14.0442 -64.0158
lclavicle -2.88187e-014 -1.59028e-015
lhumerus 45.7347 -14.4275 85.217
lradius 67.6784
lwrist 18.9539
lhand -18.9929 48.9392
lfingers 7.12502
lthumb 7.31204 78.7929
rfemur -31.6291 -4.77772 20.45
rtibia 20.1378
rfoot -0.759608 -17.4027
rtoes 11.2489
lfemur -2.98847 -3.40876 -16.9223
ltibia 34.5667
lfoot -7.03135 -7.62165
ltoes -19.3315
545
root -29.728 17.7309 6.34868 14.963 -80.9634 -8.69851
lowerback -2.62842 1.3161 -0.821027
upperback -2.92566 1.73678 0.849286
thorax -1.57795 0.876876 1.3509
lowerneck -15.1886 -1.08306 -4.58946
upperneck 6.61147 -1.72057 10.4779
head 4.59882 -0.333718 3.88108
rclavicle -2.66418e-015 3.8763e-015
rhumerus 57.3062 20.5745 -57.3246
rradius 65.4689
rwrist 30.2844
rhand -41.2992 -34.9745
rfingers 7.12502
rthumb -14.22 -64.4677
lclavicle -2.66418e-015 3.8763e-015
lhumerus 45.5746 -14.4667 85.5248
lradius 68.1427
lwrist 20.0473
lhand -18.3985 48.8404
lfingers 7.12502
lthumb 7.88576 78.6733
rfemur -31.402 -4.52447 20.8685
rtibia 20.5691
rfoot -0.630297 -16.9571
rtoes 11.8981
lfemur -3.42011 -3.45867 -16.5869
ltibia 35.9236
lfoot -6.18558 -7.81366
ltoes -19.8191
546
root -29.9035 17.7304 6.34095 16.4717 -81.1512 -10.3339
lowerback -2.57994 1.30891 -0.581687
upperback -2.89678 1.72487 0.98741
thorax -1.57204 0.867652 1.35761
lowerneck -15.3181 -1.04853 -4.52071
upperneck 6.70811 -1.68818 10.4342
head 4.646 -0.313239 3.86023
rclavicle -6.17941e-015 1.05356e-014
rhumerus 57.361 20.8833 -57.2568
rradius 65.599
rwrist 30.4781
rhand -41.4758 -35.3975
rfingers 7.12502
rthumb -14.3902 -64.8787
lclavicle -6.17941e-015 1.05356e-014
lhumerus 45.3869 -14.5253 85.7808
lradius 68.6532
lwrist 21.1222
lhand -17.7296 48.7067
lfingers 7.12502
lthumb 8.53126 78.5143
rfemur -31.1561 -4.29924 21.3127
rtibia 21.0327
rfoot -0.533285 -16.4926
rtoes 12.5336
lfemur -3.90423 -3.5008 -16.2411
ltibia 37.3029
lfoot -5.34939 -7.99395
ltoes -20.2344
